<svg width="1180" height="610" viewBox="0 0 1180 610" xmlns="http://www.w3.org/2000/svg">
<title>Sri Charan — GitHub Profile Header (Dark)</title>
<defs>
  <clipPath id="canvasClip"><rect x="0" y="0" width="1180" height="610" rx="28"/></clipPath>
  <clipPath id="leftPanelClip"><rect x="24" y="24" width="420" height="562" rx="20"/></clipPath>
  <clipPath id="rightPanelClip"><rect x="468" y="24" width="688" height="562" rx="20"/></clipPath>
  <clipPath id="asciiClip"><rect x="128" y="72" width="235" height="248"/></clipPath>

  <linearGradient id="accentGrad" x1="0%" y1="0%" x2="100%" y2="0%">
    <stop offset="0%" stop-color="#7C3AED"/>
    <stop offset="50%" stop-color="#22D3EE"/>
    <stop offset="100%" stop-color="#10B981"/>
    <animate attributeName="x1" values="-30%;70%;-30%" dur="8s" repeatCount="indefinite"/>
    <animate attributeName="x2" values="70%;170%;70%" dur="8s" repeatCount="indefinite"/>
  </linearGradient>

  <linearGradient id="asciiGrad" x1="0%" y1="0%" x2="100%" y2="0%">
    <stop offset="0%" stop-color="#22D3EE"/>
    <stop offset="50%" stop-color="#818CF8"/>
    <stop offset="100%" stop-color="#7C3AED"/>
    <animate attributeName="x1" values="-40%;60%;-40%" dur="5s" repeatCount="indefinite"/>
    <animate attributeName="x2" values="60%;160%;60%" dur="5s" repeatCount="indefinite"/>
  </linearGradient>

  <linearGradient id="scanGrad" x1="0%" y1="0%" x2="0%" y2="100%">
    <stop offset="0%" stop-color="#22D3EE" stop-opacity="0"/>
    <stop offset="50%" stop-color="#22D3EE" stop-opacity="0.55"/>
    <stop offset="100%" stop-color="#22D3EE" stop-opacity="0"/>
  </linearGradient>

  <linearGradient id="shimmerGrad" gradientUnits="userSpaceOnUse" x1="-260" y1="0" x2="-60" y2="610">
    <stop offset="0%" stop-color="#7C3AED" stop-opacity="0"/>
    <stop offset="48%" stop-color="#22D3EE" stop-opacity="0"/>
    <stop offset="50%" stop-color="#67E8F9" stop-opacity="0.9"/>
    <stop offset="52%" stop-color="#22D3EE" stop-opacity="0"/>
    <stop offset="100%" stop-color="#10B981" stop-opacity="0"/>
    <animate attributeName="x1" values="-260;1180;-260" dur="7s" repeatCount="indefinite"/>
    <animate attributeName="x2" values="-60;1380;-60" dur="7s" repeatCount="indefinite"/>
  </linearGradient>

  <radialGradient id="blobBlue" cx="50%" cy="50%" r="50%">
    <stop offset="0%" stop-color="#2563EB" stop-opacity="0.9"/>
    <stop offset="100%" stop-color="#2563EB" stop-opacity="0"/>
  </radialGradient>
  <radialGradient id="blobPurple" cx="50%" cy="50%" r="50%">
    <stop offset="0%" stop-color="#7C3AED" stop-opacity="0.9"/>
    <stop offset="100%" stop-color="#7C3AED" stop-opacity="0"/>
  </radialGradient>
  <radialGradient id="blobEmerald" cx="50%" cy="50%" r="50%">
    <stop offset="0%" stop-color="#10B981" stop-opacity="0.85"/>
    <stop offset="100%" stop-color="#10B981" stop-opacity="0"/>
  </radialGradient>

  <linearGradient id="glassShine" x1="0%" y1="0%" x2="100%" y2="100%">
    <stop offset="0%" stop-color="#FFFFFF" stop-opacity="0.07"/>
    <stop offset="35%" stop-color="#FFFFFF" stop-opacity="0"/>
  </linearGradient>

  <filter id="glow" x="-60%" y="-60%" width="220%" height="220%">
    <feGaussianBlur in="SourceGraphic" stdDeviation="2.6" result="b"/>
    <feMerge><feMergeNode in="b"/><feMergeNode in="SourceGraphic"/></feMerge>
  </filter>
  <filter id="glowStrong" x="-80%" y="-80%" width="260%" height="260%">
    <feGaussianBlur in="SourceGraphic" stdDeviation="5" result="b"/>
    <feMerge><feMergeNode in="b"/><feMergeNode in="SourceGraphic"/></feMerge>
  </filter>
  <filter id="blurBg" x="-100%" y="-100%" width="300%" height="300%">
    <feGaussianBlur stdDeviation="55"/>
  </filter>
  <filter id="blurSoft" x="-100%" y="-100%" width="300%" height="300%">
    <feGaussianBlur stdDeviation="7"/>
  </filter>
  <filter id="noiseFilter" x="0%" y="0%" width="100%" height="100%">
    <feTurbulence type="fractalNoise" baseFrequency="0.85" numOctaves="2" seed="7" stitchTiles="stitch" result="n"/>
    <feColorMatrix in="n" type="matrix" values="0 0 0 0 1  0 0 0 0 1  0 0 0 0 1  0 0 0 0.035 0"/>
  </filter>
</defs>

<rect x="0" y="0" width="1180" height="610" rx="28" fill="#030712"/>

<g clip-path="url(#canvasClip)">
  <circle cx="150" cy="560" r="230" fill="url(#blobBlue)" filter="url(#blurBg)" opacity="0.28">
    <animate attributeName="cx" values="150;195;150" dur="15s" repeatCount="indefinite"/>
    <animate attributeName="cy" values="560;520;560" dur="19s" repeatCount="indefinite"/>
  </circle>
  <circle cx="920" cy="60" r="270" fill="url(#blobPurple)" filter="url(#blurBg)" opacity="0.24">
    <animate attributeName="cx" values="920;860;920" dur="17s" repeatCount="indefinite"/>
    <animate attributeName="cy" values="60;110;60" dur="13s" repeatCount="indefinite"/>
  </circle>
  <circle cx="1020" cy="540" r="210" fill="url(#blobEmerald)" filter="url(#blurBg)" opacity="0.20">
    <animate attributeName="cx" values="1020;970;1020" dur="16s" repeatCount="indefinite"/>
    <animate attributeName="cy" values="540;500;540" dur="20s" repeatCount="indefinite"/>
  </circle>

  <!-- floating particles -->
  <g fill="#67E8F9">
    <circle cx="14" cy="120" r="1.6" opacity="0.5"><animate attributeName="cy" values="120;60;120" dur="7s" repeatCount="indefinite"/><animate attributeName="opacity" values="0;0.6;0" dur="7s" repeatCount="indefinite"/></circle>
    <circle cx="1166" cy="170" r="1.8" opacity="0.5"><animate attributeName="cy" values="170;100;170" dur="8.5s" repeatCount="indefinite"/><animate attributeName="opacity" values="0;0.55;0" dur="8.5s" repeatCount="indefinite"/></circle>
    <circle cx="446" cy="320" r="1.4" opacity="0.4"><animate attributeName="cy" values="320;260;320" dur="6.5s" repeatCount="indefinite"/><animate attributeName="opacity" values="0;0.5;0" dur="6.5s" repeatCount="indefinite"/></circle>
    <circle cx="20" cy="470" r="1.7" opacity="0.4"><animate attributeName="cy" values="470;410;470" dur="9s" repeatCount="indefinite"/><animate attributeName="opacity" values="0;0.5;0" dur="9s" repeatCount="indefinite"/></circle>
    <circle cx="1160" cy="520" r="1.5" opacity="0.4"><animate attributeName="cy" values="520;460;520" dur="7.5s" repeatCount="indefinite"/><animate attributeName="opacity" values="0;0.5;0" dur="7.5s" repeatCount="indefinite"/></circle>
    <circle cx="450" cy="90" r="1.6" opacity="0.4"><animate attributeName="cy" values="90;40;90" dur="8s" repeatCount="indefinite"/><animate attributeName="opacity" values="0;0.5;0" dur="8s" repeatCount="indefinite"/></circle>
    <circle cx="610" cy="16" r="1.4" opacity="0.35"><animate attributeName="cy" values="16;-20;16" dur="6s" repeatCount="indefinite"/><animate attributeName="opacity" values="0;0.45;0" dur="6s" repeatCount="indefinite"/></circle>
    <circle cx="640" cy="600" r="1.6" opacity="0.35"><animate attributeName="cy" values="600;560;600" dur="9.5s" repeatCount="indefinite"/><animate attributeName="opacity" values="0;0.45;0" dur="9.5s" repeatCount="indefinite"/></circle>
  </g>
</g>

<!-- ================= LEFT PANEL ================= -->
<g>
  <rect x="24" y="24" width="420" height="562" rx="20" fill="#0F172A" fill-opacity="0.55"/>
  <rect x="24" y="24" width="420" height="562" rx="20" fill="url(#glassShine)"/>
  <rect x="24.5" y="24.5" width="419" height="561" rx="19.5" fill="none" stroke="#FFFFFF" stroke-opacity="0.08"/>

  <g clip-path="url(#leftPanelClip)">
    <text x="52" y="60" font-family="ui-monospace,SFMono-Regular,Menlo,Consolas,monospace" font-size="11" letter-spacing="1" fill="#94A3B8">// portrait.render(sri_charan)</text>

    <g clip-path="url(#asciiClip)">
      <g>
        <animateTransform attributeName="transform" type="translate" values="0,0; 0,-6; 0,0" dur="6s" repeatCount="indefinite"/>

        <g font-family="ui-monospace,SFMono-Regular,Menlo,Consolas,monospace" font-size="14" fill="url(#asciiGrad)" filter="url(#glow)">
          <g><text x="140" y="90" clip-path="url(#c0)">     ░░▒▒▓▓▓▓▓▓▒▒░░</text></g>
          <g><text x="140" y="107" clip-path="url(#c1)">    ░▒▓██████████▓▒░</text></g>
          <g><text x="140" y="124" clip-path="url(#c2)">   ░▒▓██▓▓▓▓▓▓▓▓██▓▒░</text></g>
          <g><text x="140" y="141" clip-path="url(#c3)">   ▒▓██▓░░▓▓▓▓░░▓██▓▒</text></g>
          <g><text x="140" y="158" clip-path="url(#c4)">   ▓██▓░░██░░██░░▓██▓</text></g>
          <g><text x="140" y="175" clip-path="url(#c5)">   ▓██▓░░░░░░░░░░▓██▓</text></g>
          <g><text x="140" y="192" clip-path="url(#c6)">   ▒▓██▓░░████░░▓██▓▒</text></g>
          <g><text x="140" y="209" clip-path="url(#c7)">    ▒▓███▓▓▓▓▓▓███▓▒</text></g>
          <g><text x="140" y="226" clip-path="url(#c8)">     ▒▓█████████▓▒</text></g>
          <g><text x="140" y="243" clip-path="url(#c9)">    ▄▓███████████▓▄</text></g>
          <g><text x="140" y="260" clip-path="url(#c10)">   ▓█████▓▓▓▓▓█████▓</text></g>
          <g><text x="140" y="277" clip-path="url(#c11)">  ▓████▓░SRI.C░▓████▓</text></g>
          <g><text x="140" y="294" clip-path="url(#c12)">   ▀███████████████▀</text></g>
          <g><text x="140" y="311" clip-path="url(#c13)">     ▀▀▀▀▀▀▀▀▀▀▀▀▀</text></g>
        </g>

        <text x="305" y="311" font-family="ui-monospace,SFMono-Regular,Menlo,Consolas,monospace" font-size="15" fill="#22D3EE">▌
          <animate attributeName="opacity" values="1;1;0;0" keyTimes="0;0.5;0.51;1" dur="1s" repeatCount="indefinite"/>
        </text>

        <rect x="128" y="75" width="235" height="3" fill="url(#scanGrad)" opacity="0.7">
          <animate attributeName="y" values="75;312;75" dur="3.6s" repeatCount="indefinite"/>
        </rect>
      </g>
    </g>

    <text x="234" y="352" text-anchor="middle" font-family="ui-monospace,SFMono-Regular,Menlo,Consolas,monospace" font-size="27" font-weight="700" letter-spacing="3" fill="url(#accentGrad)" filter="url(#glow)">SRI CHARAN</text>
    <text x="234" y="376" text-anchor="middle" font-family="ui-monospace,SFMono-Regular,Menlo,Consolas,monospace" font-size="13" fill="#94A3B8">@SriCharan12-hub</text>

    <rect x="204" y="390" width="60" height="2" rx="1" fill="url(#accentGrad)"/>

    <text x="234" y="418" text-anchor="middle" font-family="ui-monospace,SFMono-Regular,Menlo,Consolas,monospace" font-size="12.5" fill="#CBD5E1">Cloud &amp; DevOps Enthusiast</text>
    <text x="234" y="436" text-anchor="middle" font-family="ui-monospace,SFMono-Regular,Menlo,Consolas,monospace" font-size="11" fill="#94A3B8">Building real-time apps, one commit at a time</text>

    <g>
      <rect x="164" y="464" width="140" height="26" rx="13" fill="#0F172A" fill-opacity="0.6" stroke="#10B981" stroke-opacity="0.4"/>
      <circle cx="182" cy="477" r="4" fill="#10B981">
        <animate attributeName="opacity" values="1;0.35;1" dur="2s" repeatCount="indefinite"/>
      </circle>
      <text x="194" y="481" font-family="ui-monospace,SFMono-Regular,Menlo,Consolas,monospace" font-size="10.5" fill="#CBD5E1">Open to opportunities</text>
    </g>
  </g>
</g>

<clipPath id="c0"><rect x="140" y="78" height="16"><animate attributeName="width" values="0;210;210;0" keyTimes="0;0.08;0.85;1" dur="14s" begin="0.4s" repeatCount="indefinite"/></rect></clipPath>
<clipPath id="c1"><rect x="140" y="95" height="16"><animate attributeName="width" values="0;210;210;0" keyTimes="0;0.08;0.85;1" dur="14s" begin="0.52s" repeatCount="indefinite"/></rect></clipPath>
<clipPath id="c2"><rect x="140" y="112" height="16"><animate attributeName="width" values="0;210;210;0" keyTimes="0;0.08;0.85;1" dur="14s" begin="0.64s" repeatCount="indefinite"/></rect></clipPath>
<clipPath id="c3"><rect x="140" y="129" height="16"><animate attributeName="width" values="0;210;210;0" keyTimes="0;0.08;0.85;1" dur="14s" begin="0.76s" repeatCount="indefinite"/></rect></clipPath>
<clipPath id="c4"><rect x="140" y="146" height="16"><animate attributeName="width" values="0;210;210;0" keyTimes="0;0.08;0.85;1" dur="14s" begin="0.88s" repeatCount="indefinite"/></rect></clipPath>
<clipPath id="c5"><rect x="140" y="163" height="16"><animate attributeName="width" values="0;210;210;0" keyTimes="0;0.08;0.85;1" dur="14s" begin="1.0s" repeatCount="indefinite"/></rect></clipPath>
<clipPath id="c6"><rect x="140" y="180" height="16"><animate attributeName="width" values="0;210;210;0" keyTimes="0;0.08;0.85;1" dur="14s" begin="1.12s" repeatCount="indefinite"/></rect></clipPath>
<clipPath id="c7"><rect x="140" y="197" height="16"><animate attributeName="width" values="0;210;210;0" keyTimes="0;0.08;0.85;1" dur="14s" begin="1.24s" repeatCount="indefinite"/></rect></clipPath>
<clipPath id="c8"><rect x="140" y="214" height="16"><animate attributeName="width" values="0;210;210;0" keyTimes="0;0.08;0.85;1" dur="14s" begin="1.36s" repeatCount="indefinite"/></rect></clipPath>
<clipPath id="c9"><rect x="140" y="231" height="16"><animate attributeName="width" values="0;210;210;0" keyTimes="0;0.08;0.85;1" dur="14s" begin="1.48s" repeatCount="indefinite"/></rect></clipPath>
<clipPath id="c10"><rect x="140" y="248" height="16"><animate attributeName="width" values="0;210;210;0" keyTimes="0;0.08;0.85;1" dur="14s" begin="1.6s" repeatCount="indefinite"/></rect></clipPath>
<clipPath id="c11"><rect x="140" y="265" height="16"><animate attributeName="width" values="0;210;210;0" keyTimes="0;0.08;0.85;1" dur="14s" begin="1.72s" repeatCount="indefinite"/></rect></clipPath>
<clipPath id="c12"><rect x="140" y="282" height="16"><animate attributeName="width" values="0;210;210;0" keyTimes="0;0.08;0.85;1" dur="14s" begin="1.84s" repeatCount="indefinite"/></rect></clipPath>
<clipPath id="c13"><rect x="140" y="299" height="16"><animate attributeName="width" values="0;210;210;0" keyTimes="0;0.08;0.85;1" dur="14s" begin="1.96s" repeatCount="indefinite"/></rect></clipPath>

<!-- ================= RIGHT PANEL ================= -->
<g>
  <rect x="468" y="24" width="688" height="562" rx="20" fill="#0F172A" fill-opacity="0.55"/>
  <rect x="468" y="24" width="688" height="562" rx="20" fill="url(#glassShine)"/>
  <rect x="468.5" y="24.5" width="687" height="561" rx="19.5" fill="none" stroke="#FFFFFF" stroke-opacity="0.08"/>

  <g clip-path="url(#rightPanelClip)">
    <rect x="468" y="24" width="688" height="40" fill="#FFFFFF" fill-opacity="0.03"/>
    <circle cx="500" cy="44" r="6" fill="#FF5F56"/>
    <circle cx="522" cy="44" r="6" fill="#FFBD2E"/>
    <circle cx="544" cy="44" r="6" fill="#27C93F"/>
    <text x="812" y="48" text-anchor="middle" font-family="ui-monospace,SFMono-Regular,Menlo,Consolas,monospace" font-size="12" fill="#94A3B8">sri@charan &#8212; zsh</text>
    <line x1="468" y1="64" x2="1156" y2="64" stroke="#FFFFFF" stroke-opacity="0.06"/>

    <g clip-path="url(#w0)">
      <text x="496" y="96" font-family="ui-monospace,SFMono-Regular,Menlo,Consolas,monospace" font-size="14" fill="#F8FAFC"><tspan fill="#22D3EE">$</tspan> whoami</text>
    </g>
    <clipPath id="w0"><rect x="496" y="84" height="18"><animate attributeName="width" values="0;140;140" keyTimes="0;0.5;1" dur="1.6s" begin="0.3s" fill="freeze"/></rect></clipPath>

    <g clip-path="url(#w1)">
      <text x="496" y="134" font-family="ui-monospace,SFMono-Regular,Menlo,Consolas,monospace" font-size="26" font-weight="700" fill="#F8FAFC">Hi <tspan>&#128075;</tspan> I&#8217;m <tspan fill="url(#accentGrad)" filter="url(#glow)">Sri Charan</tspan></text>
    </g>
    <clipPath id="w1"><rect x="496" y="108" height="34"><animate attributeName="width" values="0;520;520" keyTimes="0;0.5;1" dur="1.6s" begin="1.3s" fill="freeze"/></rect></clipPath>

    <text x="496" y="172" font-family="ui-monospace,SFMono-Regular,Menlo,Consolas,monospace" font-size="17" fill="#22D3EE">&gt;</text>
    <g font-family="ui-monospace,SFMono-Regular,Menlo,Consolas,monospace" font-size="17" fill="#67E8F9">
      <g clip-path="url(#p0)"><text x="520" y="172">Full Stack Developer</text></g>
      <g clip-path="url(#p1)"><text x="520" y="172">Cloud &amp; DevOps Enthusiast</text></g>
      <g clip-path="url(#p2)"><text x="520" y="172">MERN Stack Developer</text></g>
      <g clip-path="url(#p3)"><text x="520" y="172">Real-Time Apps Builder</text></g>
      <g clip-path="url(#p4)"><text x="520" y="172">Open Source Explorer</text></g>
    </g>
    <text x="786" y="172" font-family="ui-monospace,SFMono-Regular,Menlo,Consolas,monospace" font-size="17" fill="#22D3EE">|
      <animate attributeName="opacity" values="1;1;0;0" keyTimes="0;0.5;0.51;1" dur="0.9s" repeatCount="indefinite"/>
    </text>

    <g font-family="ui-monospace,SFMono-Regular,Menlo,Consolas,monospace" font-size="14.5">
      <g opacity="0"><animate attributeName="opacity" values="0;1" dur="0.01s" begin="3.2s" fill="freeze"/>
        <text x="496" y="214"><tspan>&#127891;</tspan> <tspan fill="#94A3B8">Education</tspan>  <tspan fill="#E2E8F0">3rd-Year Student @ NIAT</tspan></text>
      </g>
      <g opacity="0"><animate attributeName="opacity" values="0;1" dur="0.01s" begin="3.6s" fill="freeze"/>
        <text x="496" y="248"><tspan>&#9729;&#65039;</tspan> <tspan fill="#94A3B8">Focus</tspan>  <tspan fill="#E2E8F0">AWS, Docker &amp; Backend Systems</tspan></text>
      </g>
      <g opacity="0"><animate attributeName="opacity" values="0;1" dur="0.01s" begin="4.0s" fill="freeze"/>
        <text x="496" y="282"><tspan>&#128279;</tspan> <tspan fill="#94A3B8">Portfolio</tspan>  <tspan fill="#E2E8F0">github.com/SriCharan12-hub</tspan></text>
      </g>
      <g opacity="0"><animate attributeName="opacity" values="0;1" dur="0.01s" begin="4.4s" fill="freeze"/>
        <text x="496" y="316"><tspan>&#129520;</tspan> <tspan fill="#94A3B8">Stack</tspan>  <tspan fill="#E2E8F0">MERN + Cloud + DevOps</tspan></text>
      </g>
    </g>

    <text x="496" y="356" font-family="ui-monospace,SFMono-Regular,Menlo,Consolas,monospace" font-size="12" letter-spacing="3" fill="#94A3B8">SKILLS</text>

    <g font-family="ui-monospace,SFMono-Regular,Menlo,Consolas,monospace" font-size="12.5" fill="#F8FAFC">
      <!-- row 1 -->
      <g>
        <rect x="494" y="370" width="74" height="30" rx="15" fill="url(#accentGrad)" filter="url(#blurSoft)" opacity="0.18"><animate attributeName="opacity" values="0.12;0.32;0.12" dur="3s" begin="0s" repeatCount="indefinite"/></rect>
        <rect x="496" y="372" width="70" height="30" rx="15" fill="#0F172A" fill-opacity="0.6" stroke="url(#accentGrad)" stroke-opacity="0.55"/>
        <text x="531" y="391" text-anchor="middle">React</text>
      </g>
      <g>
        <rect x="574" y="370" width="82" height="30" rx="15" fill="url(#accentGrad)" filter="url(#blurSoft)" opacity="0.18"><animate attributeName="opacity" values="0.12;0.32;0.12" dur="3s" begin="0.15s" repeatCount="indefinite"/></rect>
        <rect x="576" y="372" width="78" height="30" rx="15" fill="#0F172A" fill-opacity="0.6" stroke="url(#accentGrad)" stroke-opacity="0.55"/>
        <text x="615" y="391" text-anchor="middle">Next.js</text>
      </g>
      <g>
        <rect x="662" y="370" width="82" height="30" rx="15" fill="url(#accentGrad)" filter="url(#blurSoft)" opacity="0.18"><animate attributeName="opacity" values="0.12;0.32;0.12" dur="3s" begin="0.3s" repeatCount="indefinite"/></rect>
        <rect x="664" y="372" width="78" height="30" rx="15" fill="#0F172A" fill-opacity="0.6" stroke="url(#accentGrad)" stroke-opacity="0.55"/>
        <text x="703" y="391" text-anchor="middle">Node.js</text>
      </g>
      <g>
        <rect x="750" y="370" width="88" height="30" rx="15" fill="url(#accentGrad)" filter="url(#blurSoft)" opacity="0.18"><animate attributeName="opacity" values="0.12;0.32;0.12" dur="3s" begin="0.45s" repeatCount="indefinite"/></rect>
        <rect x="752" y="372" width="84" height="30" rx="15" fill="#0F172A" fill-opacity="0.6" stroke="url(#accentGrad)" stroke-opacity="0.55"/>
        <text x="794" y="391" text-anchor="middle">Express</text>
      </g>
      <g>
        <rect x="844" y="370" width="96" height="30" rx="15" fill="url(#accentGrad)" filter="url(#blurSoft)" opacity="0.18"><animate attributeName="opacity" values="0.12;0.32;0.12" dur="3s" begin="0.6s" repeatCount="indefinite"/></rect>
        <rect x="846" y="372" width="92" height="30" rx="15" fill="#0F172A" fill-opacity="0.6" stroke="url(#accentGrad)" stroke-opacity="0.55"/>
        <text x="892" y="391" text-anchor="middle">MongoDB</text>
      </g>
      <g>
        <rect x="946" y="370" width="108" height="30" rx="15" fill="url(#accentGrad)" filter="url(#blurSoft)" opacity="0.18"><animate attributeName="opacity" values="0.12;0.32;0.12" dur="3s" begin="0.75s" repeatCount="indefinite"/></rect>
        <rect x="948" y="372" width="104" height="30" rx="15" fill="#0F172A" fill-opacity="0.6" stroke="url(#accentGrad)" stroke-opacity="0.55"/>
        <text x="1000" y="391" text-anchor="middle">TypeScript</text>
      </g>
      <!-- row 2 -->
      <g>
        <rect x="494" y="410" width="96" height="30" rx="15" fill="url(#accentGrad)" filter="url(#blurSoft)" opacity="0.18"><animate attributeName="opacity" values="0.12;0.32;0.12" dur="3s" begin="0.9s" repeatCount="indefinite"/></rect>
        <rect x="496" y="412" width="92" height="30" rx="15" fill="#0F172A" fill-opacity="0.6" stroke="url(#accentGrad)" stroke-opacity="0.55"/>
        <text x="542" y="431" text-anchor="middle">Tailwind</text>
      </g>
      <g>
        <rect x="596" y="410" width="82" height="30" rx="15" fill="url(#accentGrad)" filter="url(#blurSoft)" opacity="0.18"><animate attributeName="opacity" values="0.12;0.32;0.12" dur="3s" begin="1.05s" repeatCount="indefinite"/></rect>
        <rect x="598" y="412" width="78" height="30" rx="15" fill="#0F172A" fill-opacity="0.6" stroke="url(#accentGrad)" stroke-opacity="0.55"/>
        <text x="637" y="431" text-anchor="middle">Python</text>
      </g>
      <g>
        <rect x="684" y="410" width="86" height="30" rx="15" fill="url(#accentGrad)" filter="url(#blurSoft)" opacity="0.18"><animate attributeName="opacity" values="0.12;0.32;0.12" dur="3s" begin="1.2s" repeatCount="indefinite"/></rect>
        <rect x="686" y="412" width="82" height="30" rx="15" fill="#0F172A" fill-opacity="0.6" stroke="url(#accentGrad)" stroke-opacity="0.55"/>
        <text x="727" y="431" text-anchor="middle">Docker</text>
      </g>
      <g>
        <rect x="776" y="410" width="68" height="30" rx="15" fill="url(#accentGrad)" filter="url(#blurSoft)" opacity="0.18"><animate attributeName="opacity" values="0.12;0.32;0.12" dur="3s" begin="1.35s" repeatCount="indefinite"/></rect>
        <rect x="778" y="412" width="64" height="30" rx="15" fill="#0F172A" fill-opacity="0.6" stroke="url(#accentGrad)" stroke-opacity="0.55"/>
        <text x="810" y="431" text-anchor="middle">AWS</text>
      </g>
      <g>
        <rect x="850" y="410" width="60" height="30" rx="15" fill="url(#accentGrad)" filter="url(#blurSoft)" opacity="0.18"><animate attributeName="opacity" values="0.12;0.32;0.12" dur="3s" begin="1.5s" repeatCount="indefinite"/></rect>
        <rect x="852" y="412" width="56" height="30" rx="15" fill="#0F172A" fill-opacity="0.6" stroke="url(#accentGrad)" stroke-opacity="0.55"/>
        <text x="880" y="431" text-anchor="middle">Git</text>
      </g>
    </g>

    <text x="496" y="470" font-family="ui-monospace,SFMono-Regular,Menlo,Consolas,monospace" font-size="12" letter-spacing="3" fill="#94A3B8">CONNECT</text>

    <g fill="#F8FAFC">
      <g>
        <circle cx="514" cy="508" r="21" fill="url(#accentGrad)" filter="url(#blurSoft)" opacity="0.22"><animate attributeName="opacity" values="0.14;0.32;0.14" dur="3.4s" begin="0s" repeatCount="indefinite"/></circle>
        <g><animateTransform attributeName="transform" type="translate" values="0,0;0,-3;0,0" dur="4s" begin="0s" repeatCount="indefinite"/>
          <circle cx="514" cy="508" r="18" fill="#0F172A" fill-opacity="0.65" stroke="url(#accentGrad)" stroke-opacity="0.6"/>
          <g transform="translate(504,498) scale(0.8333)">
            <path d="M12 0c-6.626 0-12 5.373-12 12 0 5.302 3.438 9.8 8.207 11.387.599.111.793-.261.793-.577v-2.234c-3.338.726-4.033-1.416-4.033-1.416-.546-1.387-1.333-1.756-1.333-1.756-1.089-.745.083-.729.083-.729 1.205.084 1.839 1.237 1.839 1.237 1.07 1.834 2.807 1.304 3.492.997.107-.775.418-1.305.762-1.604-2.665-.305-5.467-1.334-5.467-5.931 0-1.311.469-2.381 1.236-3.221-.124-.303-.535-1.524.117-3.176 0 0 1.008-.322 3.301 1.23.957-.266 1.983-.399 3.003-.404 1.02.005 2.047.138 3.006.404 2.291-1.552 3.297-1.23 3.297-1.23.653 1.653.242 2.874.118 3.176.77.84 1.235 1.911 1.235 3.221 0 4.609-2.807 5.624-5.479 5.921.43.372.823 1.102.823 2.222v3.293c0 .319.192.694.801.576 4.765-1.589 8.199-6.086 8.199-11.386 0-6.627-5.373-12-12-12z"/>
          </g>
        </g>
      </g>
      <g>
        <circle cx="584" cy="508" r="21" fill="url(#accentGrad)" filter="url(#blurSoft)" opacity="0.22"><animate attributeName="opacity" values="0.14;0.32;0.14" dur="3.4s" begin="0.4s" repeatCount="indefinite"/></circle>
        <g><animateTransform attributeName="transform" type="translate" values="0,0;0,-3;0,0" dur="4.4s" begin="0.3s" repeatCount="indefinite"/>
          <circle cx="584" cy="508" r="18" fill="#0F172A" fill-opacity="0.65" stroke="url(#accentGrad)" stroke-opacity="0.6"/>
          <g transform="translate(574,498) scale(0.8333)">
            <path d="M20.447 20.452h-3.554v-5.569c0-1.328-.027-3.037-1.852-3.037-1.853 0-2.136 1.445-2.136 2.939v5.667H9.351V9h3.414v1.561h.046c.477-.9 1.637-1.85 3.37-1.85 3.601 0 4.267 2.37 4.267 5.455v6.286zM5.337 7.433c-1.144 0-2.063-.926-2.063-2.065 0-1.138.92-2.063 2.063-2.063 1.14 0 2.064.925 2.064 2.063 0 1.139-.925 2.065-2.064 2.065zm1.782 13.019H3.555V9h3.564v11.452zM22.225 0H1.771C.792 0 0 .774 0 1.729v20.542C0 23.227.792 24 1.771 24h20.451C23.2 24 24 23.227 24 22.271V1.729C24 .774 23.2 0 22.222 0h.003z"/>
          </g>
        </g>
      </g>
      <g>
        <circle cx="654" cy="508" r="21" fill="url(#accentGrad)" filter="url(#blurSoft)" opacity="0.22"><animate attributeName="opacity" values="0.14;0.32;0.14" dur="3.4s" begin="0.8s" repeatCount="indefinite"/></circle>
        <g><animateTransform attributeName="transform" type="translate" values="0,0;0,-3;0,0" dur="4.8s" begin="0.6s" repeatCount="indefinite"/>
          <circle cx="654" cy="508" r="18" fill="#0F172A" fill-opacity="0.65" stroke="url(#accentGrad)" stroke-opacity="0.6"/>
          <g transform="translate(654,508)" stroke="#F8FAFC" stroke-width="1.6" stroke-linecap="round" stroke-linejoin="round" fill="none">
            <path d="M -6.5 -3 L -10 0 L -6.5 3"/>
            <path d="M 6.5 -3 L 10 0 L 6.5 3"/>
            <line x1="-1.5" y1="6" x2="1.5" y2="-6"/>
          </g>
        </g>
      </g>
      <g>
        <circle cx="724" cy="508" r="21" fill="url(#accentGrad)" filter="url(#blurSoft)" opacity="0.22"><animate attributeName="opacity" values="0.14;0.32;0.14" dur="3.4s" begin="1.2s" repeatCount="indefinite"/></circle>
        <g><animateTransform attributeName="transform" type="translate" values="0,0;0,-3;0,0" dur="4.2s" begin="0.9s" repeatCount="indefinite"/>
          <circle cx="724" cy="508" r="18" fill="#0F172A" fill-opacity="0.65" stroke="url(#accentGrad)" stroke-opacity="0.6"/>
          <g transform="translate(724,508)" stroke="#F8FAFC" stroke-width="1.6" fill="none">
            <rect x="-9" y="-9" width="18" height="18" rx="5"/>
            <circle cx="0" cy="0" r="5"/>
            <circle cx="6" cy="-6" r="1.3" fill="#F8FAFC" stroke="none"/>
          </g>
        </g>
      </g>
    </g>

    <text x="496" y="556" font-family="ui-monospace,SFMono-Regular,Menlo,Consolas,monospace" font-size="10.5" fill="#64748B">github.com/SriCharan12-hub &#183; linkedin.com/in/sri-charan-palem</text>
  </g>
</g>

<clipPath id="p0"><rect x="520" y="156" height="22"><animate attributeName="width" values="0;210;210;0;0" keyTimes="0;0.04;0.16;0.2;1" dur="15s" begin="0s" repeatCount="indefinite"/></rect></clipPath>
<clipPath id="p1"><rect x="520" y="156" height="22"><animate attributeName="width" values="0;260;260;0;0" keyTimes="0;0.04;0.16;0.2;1" dur="15s" begin="3s" repeatCount="indefinite"/></rect></clipPath>
<clipPath id="p2"><rect x="520" y="156" height="22"><animate attributeName="width" values="0;210;210;0;0" keyTimes="0;0.04;0.16;0.2;1" dur="15s" begin="6s" repeatCount="indefinite"/></rect></clipPath>
<clipPath id="p3"><rect x="520" y="156" height="22"><animate attributeName="width" values="0;230;230;0;0" keyTimes="0;0.04;0.16;0.2;1" dur="15s" begin="9s" repeatCount="indefinite"/></rect></clipPath>
<clipPath id="p4"><rect x="520" y="156" height="22"><animate attributeName="width" values="0;210;210;0;0" keyTimes="0;0.04;0.16;0.2;1" dur="15s" begin="12s" repeatCount="indefinite"/></rect></clipPath>

<!-- outer border + shimmer -->
<rect x="1" y="1" width="1178" height="608" rx="27" fill="none" stroke="#FFFFFF" stroke-opacity="0.08" stroke-width="1"/>
<rect x="1" y="1" width="1178" height="608" rx="27" fill="none" stroke="url(#shimmerGrad)" stroke-width="1.6"/>

<!-- noise overlay -->
<rect x="0" y="0" width="1180" height="610" rx="28" fill="#ffffff" filter="url(#noiseFilter)" opacity="0.5" style="mix-blend-mode:overlay" clip-path="url(#canvasClip)"/>
</svg>
